<?xml version="1.0" standalone="no"?>
<!DOCTYPE svg PUBLIC "-//W3C//DTD SVG 20010904//EN"
 "http://www.w3.org/TR/2001/REC-SVG-20010904/DTD/svg10.dtd">
<svg version="1.0" xmlns="http://www.w3.org/2000/svg"
 width="225.000000pt" height="225.000000pt" viewBox="0 0 225.000000 225.000000"
 preserveAspectRatio="xMidYMid meet">

<g transform="translate(0.000000,225.000000) scale(0.100000,-0.100000)"
fill="#000000" stroke="none">
<path d="M0 1125 l0 -1125 1125 0 1125 0 0 1125 0 1125 -1125 0 -1125 0 0
-1125z m1862 78 c44 -20 119 -87 139 -124 7 -14 -5 -26 -71 -68 l-80 -51 -40
40 c-37 37 -44 40 -95 40 -69 0 -105 -29 -105 -84 0 -53 36 -87 147 -137 141
-63 182 -88 234 -139 57 -57 79 -116 75 -207 -4 -119 -59 -203 -163 -250 -173
-80 -394 -39 -513 94 -27 32 -50 64 -50 72 0 9 35 36 82 62 l82 46 25 -31 c52
-63 113 -96 181 -96 106 0 169 66 136 143 -13 32 -30 43 -170 111 -164 80
-210 115 -247 189 -28 54 -36 160 -18 224 16 60 103 150 169 175 64 25 217 20
282 -9z m-640 -340 c4 -403 -1 -471 -36 -541 -51 -100 -135 -145 -271 -145
-142 0 -247 52 -302 150 l-23 40 86 53 c81 50 87 52 97 34 6 -10 25 -34 43
-52 28 -28 39 -32 82 -32 39 0 57 6 79 24 l28 24 3 401 3 401 104 0 103 0 4
-357z"/>
</g>
</svg>
