<svg width="255" height="258" viewBox="0 0 255 258" fill="none" xmlns="http://www.w3.org/2000/svg">
<mask id="mask0" mask-type="alpha" maskUnits="userSpaceOnUse" x="0" y="0" width="255" height="258">
<path d="M0 0H255V258H0V0Z" fill="#F7F8F9"/>
</mask>
<g mask="url(#mask0)">
<path d="M49.5 76C49.5 70.7533 53.7533 66.5 59 66.5H211C216.247 66.5 220.5 70.7533 220.5 76V269.5H49.5V76Z" fill="white" stroke="#DADDE1"/>
<path d="M39.5 66C39.5 60.7533 43.7533 56.5 49 56.5H201C206.247 56.5 210.5 60.7533 210.5 66V259.5H39.5V66Z" fill="white" stroke="#DADDE1"/>
<path fill-rule="evenodd" clip-rule="evenodd" d="M190.601 235C189.93 235 189.622 235.834 190.131 236.271L193.437 239.104L194.391 243.398C194.533 244.035 195.379 244.172 195.715 243.613L200.227 236.094C200.516 235.612 200.169 235 199.607 235H190.601ZM193.952 238.229L191.352 236H198.039L193.952 238.229ZM194.458 239.092L195.216 242.501L198.625 236.819L194.458 239.092Z" fill="#9595B5"/>
<rect x="97" y="228" width="57" height="22" rx="11" fill="#CFA7FF"/>
<path d="M122 224.5L126 222L130 224.5" stroke="black" stroke-linecap="round"/>
<path d="M106.798 236.492H107.635V240.292H109.992V241H106.798V236.492ZM113.906 239.3C113.906 239.356 113.902 239.435 113.893 239.538H111.195C111.242 239.792 111.364 239.993 111.562 240.144C111.764 240.29 112.013 240.362 112.309 240.362C112.687 240.362 112.998 240.238 113.243 239.989L113.674 240.485C113.52 240.669 113.324 240.809 113.088 240.903C112.852 240.998 112.586 241.045 112.29 241.045C111.912 241.045 111.579 240.97 111.291 240.82C111.004 240.669 110.781 240.461 110.622 240.195C110.467 239.925 110.39 239.62 110.39 239.281C110.39 238.946 110.465 238.645 110.615 238.379C110.77 238.109 110.982 237.898 111.253 237.748C111.523 237.598 111.828 237.523 112.167 237.523C112.502 237.523 112.8 237.598 113.062 237.748C113.328 237.894 113.535 238.102 113.68 238.373C113.831 238.639 113.906 238.948 113.906 239.3ZM112.167 238.167C111.91 238.167 111.691 238.244 111.51 238.398C111.334 238.549 111.227 238.75 111.188 239.004H113.14C113.105 238.755 113 238.553 112.824 238.398C112.648 238.244 112.429 238.167 112.167 238.167ZM116.027 237.523C116.534 237.523 116.92 237.645 117.186 237.89C117.457 238.13 117.592 238.495 117.592 238.984V241H116.832V240.581C116.733 240.732 116.592 240.848 116.407 240.929C116.227 241.006 116.008 241.045 115.75 241.045C115.493 241.045 115.267 241.002 115.074 240.916C114.881 240.826 114.731 240.704 114.623 240.549C114.52 240.39 114.469 240.212 114.469 240.015C114.469 239.706 114.583 239.459 114.81 239.274C115.042 239.085 115.405 238.991 115.898 238.991H116.787V238.939C116.787 238.699 116.714 238.514 116.568 238.386C116.426 238.257 116.214 238.192 115.931 238.192C115.737 238.192 115.546 238.222 115.357 238.283C115.173 238.343 115.016 238.426 114.887 238.534L114.572 237.948C114.752 237.81 114.969 237.705 115.222 237.632C115.476 237.559 115.744 237.523 116.027 237.523ZM115.918 240.459C116.12 240.459 116.298 240.414 116.452 240.324C116.611 240.229 116.723 240.096 116.787 239.925V239.525H115.956C115.493 239.525 115.261 239.678 115.261 239.983C115.261 240.129 115.319 240.244 115.435 240.33C115.551 240.416 115.712 240.459 115.918 240.459ZM119.52 238.064C119.752 237.703 120.16 237.523 120.744 237.523V238.289C120.675 238.276 120.613 238.27 120.557 238.27C120.244 238.27 119.999 238.362 119.823 238.547C119.647 238.727 119.559 238.989 119.559 239.332V241H118.754V237.561H119.52V238.064ZM123.507 237.523C123.94 237.523 124.288 237.649 124.55 237.903C124.812 238.156 124.943 238.532 124.943 239.029V241H124.138V239.133C124.138 238.832 124.067 238.607 123.925 238.456C123.783 238.302 123.582 238.225 123.32 238.225C123.024 238.225 122.79 238.315 122.618 238.495C122.446 238.671 122.36 238.926 122.36 239.261V241H121.555V237.561H122.322V238.006C122.455 237.847 122.622 237.727 122.824 237.645C123.026 237.563 123.253 237.523 123.507 237.523ZM132.219 241L132.212 238.012L130.731 240.485H130.358L128.877 238.051V241H128.078V236.492H128.767L130.557 239.48L132.315 236.492H133.004L133.011 241H132.219ZM135.825 241.045C135.478 241.045 135.164 240.97 134.885 240.82C134.606 240.669 134.387 240.461 134.228 240.195C134.074 239.925 133.997 239.62 133.997 239.281C133.997 238.941 134.074 238.639 134.228 238.373C134.387 238.106 134.606 237.898 134.885 237.748C135.164 237.598 135.478 237.523 135.825 237.523C136.178 237.523 136.493 237.598 136.772 237.748C137.051 237.898 137.268 238.106 137.422 238.373C137.581 238.639 137.661 238.941 137.661 239.281C137.661 239.62 137.581 239.925 137.422 240.195C137.268 240.461 137.051 240.669 136.772 240.82C136.493 240.97 136.178 241.045 135.825 241.045ZM135.825 240.356C136.122 240.356 136.366 240.257 136.56 240.06C136.753 239.862 136.849 239.603 136.849 239.281C136.849 238.959 136.753 238.699 136.56 238.501C136.366 238.304 136.122 238.205 135.825 238.205C135.529 238.205 135.285 238.304 135.091 238.501C134.902 238.699 134.808 238.959 134.808 239.281C134.808 239.603 134.902 239.862 135.091 240.06C135.285 240.257 135.529 240.356 135.825 240.356ZM139.326 238.064C139.557 237.703 139.965 237.523 140.549 237.523V238.289C140.48 238.276 140.418 238.27 140.362 238.27C140.049 238.27 139.804 238.362 139.628 238.547C139.452 238.727 139.364 238.989 139.364 239.332V241H138.559V237.561H139.326V238.064ZM144.562 239.3C144.562 239.356 144.558 239.435 144.549 239.538H141.851C141.898 239.792 142.02 239.993 142.218 240.144C142.42 240.29 142.669 240.362 142.965 240.362C143.343 240.362 143.654 240.238 143.899 239.989L144.33 240.485C144.176 240.669 143.98 240.809 143.744 240.903C143.508 240.998 143.242 241.045 142.946 241.045C142.568 241.045 142.235 240.97 141.947 240.82C141.66 240.669 141.437 240.461 141.278 240.195C141.123 239.925 141.046 239.62 141.046 239.281C141.046 238.946 141.121 238.645 141.271 238.379C141.426 238.109 141.638 237.898 141.909 237.748C142.179 237.598 142.484 237.523 142.823 237.523C143.158 237.523 143.456 237.598 143.718 237.748C143.985 237.894 144.191 238.102 144.337 238.373C144.487 238.639 144.562 238.948 144.562 239.3ZM142.823 238.167C142.566 238.167 142.347 238.244 142.166 238.398C141.99 238.549 141.883 238.75 141.844 239.004H143.796C143.761 238.755 143.656 238.553 143.48 238.398C143.304 238.244 143.085 238.167 142.823 238.167Z" fill="black"/>
<rect x="49" y="69" width="152" height="2" rx="1" fill="#DEDEF0"/>
<rect x="49" y="69" width="27" height="2" rx="1" fill="#C0C0DF"/>
<rect x="49" y="98" width="152" height="111" rx="2" fill="#CFA7FF"/>
<path d="M144.167 149.616C143.818 148.068 142.154 147.428 140.651 147.455C139.496 147.481 138.208 147.881 137.537 148.735C137.188 149.162 137.081 149.722 137.107 150.309C137.242 152.07 139.174 152.284 141 152.444C143.362 152.737 146.288 153.351 146.932 156.072C147.012 156.446 147.066 156.846 147.066 157.193C147.066 160.474 143.764 162.395 140.678 162.395C138.02 162.395 134.799 160.848 134.504 157.78L134.477 157.326L136.973 157.273L137 157.646V157.54C137.161 159.114 139.121 159.967 140.704 159.967C142.557 159.967 144.57 158.954 144.57 157.193C144.57 157.033 144.543 156.819 144.489 156.606C144.194 155.298 142.422 155.085 140.704 154.925C138.02 154.658 134.879 154.071 134.611 150.496V150.523C134.504 149.376 134.799 148.228 135.551 147.268C136.705 145.774 138.772 145 140.758 145C143.415 145 146.153 146.361 146.61 149.482L144.167 149.616Z" fill="white"/>
<path d="M116.895 153.618C118.988 153.618 120.008 152.124 120.008 150.63C120.008 149.162 118.988 147.668 116.895 147.668H113.083V162.262H110.64V145.187H116.895C120.626 145.187 122.478 147.908 122.478 150.63C122.478 153.058 120.975 155.325 118.022 155.859L123.444 162.289H120.223L113.969 154.792V153.618H116.895Z" fill="white"/>
<path fill-rule="evenodd" clip-rule="evenodd" d="M110.479 150.923C110.479 148.068 108.6 145.214 104.896 145.214H98.6145V162.289H101.111V156.606H104.896C108.6 156.606 110.479 153.778 110.479 150.923ZM108.01 150.923C108.01 152.551 106.99 154.151 104.896 154.151V154.125H101.111V147.668H104.896C106.99 147.668 108.01 149.296 108.01 150.923Z" fill="white"/>
<path d="M70 157.166V145.24H72.4964V157.193C72.4964 159.06 74.5365 159.994 76.3618 159.994C78.1602 159.994 80.2003 159.034 80.2003 157.166V145.24H82.6967V157.193C82.6967 160.661 79.3145 162.475 76.3618 162.475C73.3285 162.449 70 160.661 70 157.166Z" fill="white"/>
<path d="M86.0251 145.24L90.6958 151.643L95.3933 145.24H98.3997L92.199 153.804C94.0512 156.312 96.7623 160.021 98.3997 162.289H95.3933L90.6958 155.885L86.0251 162.289H82.9919L89.1926 153.804C87.6718 151.745 85.5176 148.751 83.9337 146.549C83.5886 146.069 83.2704 145.627 82.9919 145.24H86.0251Z" fill="white"/>
<path d="M134.181 159.834H126.209V154.978H133.993V152.497H126.209V147.695H134.154V145.24H123.686V162.289H134.181V159.834Z" fill="white"/>
<path d="M153.75 147.455C155.253 147.428 156.917 148.068 157.266 149.616L159.709 149.482C159.253 146.361 156.515 145 153.857 145C151.871 145 149.804 145.774 148.65 147.268C147.898 148.228 147.603 149.376 147.71 150.523V150.496C147.979 154.071 151.119 154.658 153.804 154.925C155.522 155.085 157.293 155.298 157.589 156.606C157.642 156.819 157.669 157.033 157.669 157.193C157.669 158.954 155.656 159.967 153.804 159.967C152.22 159.967 150.26 159.114 150.099 157.54V157.646L150.073 157.273L147.576 157.326L147.603 157.78C147.898 160.848 151.119 162.395 153.777 162.395C156.864 162.395 160.165 160.474 160.165 157.193C160.165 156.846 160.112 156.446 160.031 156.072C159.387 153.351 156.461 152.737 154.099 152.444C152.274 152.284 150.341 152.07 150.207 150.309C150.18 149.722 150.287 149.162 150.636 148.735C151.307 147.881 152.596 147.481 153.75 147.455Z" fill="white"/>
<path d="M163.387 145.267H160.917V162.315H163.387V145.267Z" fill="white"/>
<path fill-rule="evenodd" clip-rule="evenodd" d="M179.707 162.289H177.049L174.983 157.273H168.836C168.164 158.82 167.305 160.875 166.769 162.289H164.084L170.983 145H172.808L179.707 162.289ZM171.896 148.922L169.748 154.952H174.016L171.896 148.922Z" fill="white"/>
<path fill-rule="evenodd" clip-rule="evenodd" d="M194.979 77.1464C194.783 76.9512 194.467 76.9512 194.271 77.1464C194.076 77.3417 194.076 77.6583 194.271 77.8536L197.043 80.625L194.271 83.3964C194.076 83.5917 194.076 83.9083 194.271 84.1035C194.467 84.2988 194.783 84.2988 194.979 84.1035L197.75 81.3321L200.521 84.1035C200.717 84.2988 201.033 84.2988 201.229 84.1035C201.424 83.9083 201.424 83.5917 201.229 83.3964L198.457 80.625L201.229 77.8536C201.424 77.6583 201.424 77.3417 201.229 77.1464C201.033 76.9512 200.717 76.9512 200.521 77.1464L197.75 79.9179L194.979 77.1464Z" fill="#9595B5"/>
<path fill-rule="evenodd" clip-rule="evenodd" d="M175 81C175.552 81 176 80.5522 176 80C176 79.4478 175.552 79 175 79C174.448 79 174 79.4478 174 80C174 80.5522 174.448 81 175 81ZM180 80C180 80.5522 179.552 81 179 81C178.448 81 178 80.5522 178 80C178 79.4478 178.448 79 179 79C179.552 79 180 79.4478 180 80ZM184 80C184 80.5522 183.552 81 183 81C182.448 81 182 80.5522 182 80C182 79.4478 182.448 79 183 79C183.552 79 184 79.4478 184 80Z" fill="#9595B5"/>
</g>
</svg>
