<svg version="1.1" id="Layer_1" xmlns="http://www.w3.org/2000/svg" xmlns:xlink="http://www.w3.org/1999/xlink" x="0px" y="0px"
	 width="100%" viewBox="0 0 225 225" enable-background="new 0 0 225 225" xml:space="preserve">
<path fill="#FFFEFF" opacity="1.000000" stroke="none" 
	d="
M1.000000,89.000000 
	C1.000000,59.333340 1.000000,30.166677 1.000000,1.000012 
	C75.999977,1.000008 150.999954,1.000008 225.999954,1.000004 
	C225.999969,75.999969 225.999969,150.999939 225.999985,225.999939 
	C151.000046,225.999954 76.000092,225.999954 1.000068,225.999969 
	C1.000000,180.500000 1.000000,135.000000 1.000000,89.000000 
M185.701248,90.047348 
	C193.406189,78.030029 201.126480,66.022514 208.808914,53.990814 
	C212.109619,48.821484 212.073914,48.798687 206.685486,44.463116 
	C197.021027,56.245415 187.351135,68.034340 177.134918,80.187248 
	C167.922348,91.330345 158.709793,102.473434 148.963318,113.990967 
	C140.157150,124.605797 131.350998,135.220627 122.022743,146.212982 
	C113.617432,156.258102 105.212128,166.303223 96.800873,176.355453 
	C102.532555,185.234344 107.977493,193.669052 113.865189,202.789612 
	C121.883804,190.066727 129.408524,178.127472 137.419647,165.671005 
	C145.071869,153.555099 152.724091,141.439178 160.873566,128.875656 
	C168.937012,116.041626 177.000443,103.207603 185.701248,90.047348 
M41.992794,30.094543 
	C39.494156,30.086721 36.958984,29.818804 34.509781,30.162870 
	C32.887424,30.390781 30.954241,31.107725 29.909767,32.275917 
	C25.584791,37.113197 21.493452,42.164448 17.450106,47.243626 
	C16.748348,48.125160 16.019648,49.938187 16.440042,50.616264 
	C22.178579,59.872238 28.117279,69.004112 34.321407,78.656189 
	C42.202885,69.019653 49.566681,60.016090 57.490959,50.636406 
	C63.037148,44.018776 68.583336,37.401146 74.591118,30.232756 
	C63.178299,30.232756 53.031910,30.232756 41.992794,30.094543 
M62.305363,61.152271 
	C54.878323,70.027023 47.451279,78.901772 40.048161,87.747932 
	C47.302769,99.053413 54.269737,109.910629 61.534340,121.231674 
	C69.628006,111.295967 77.376236,101.784317 85.741150,91.970047 
	C94.543243,81.284172 103.345337,70.598297 112.723747,59.628586 
	C120.725166,50.015778 128.726593,40.402966 137.141861,30.292961 
	C121.405258,30.292961 106.653198,30.292961 91.157867,30.146790 
	C89.709450,30.676044 87.755547,30.778183 86.891289,31.801031 
	C78.791245,41.387409 70.877747,51.131409 62.305363,61.152271 
M91.235130,101.388329 
	C86.340027,107.272888 81.416245,113.133919 76.560486,119.050766 
	C73.614944,122.639954 68.764297,126.155067 68.457642,129.997772 
	C68.156540,133.770859 72.519012,137.917343 74.839325,141.897385 
	C75.341873,142.759399 75.838463,143.626465 76.379982,144.463928 
	C81.126587,151.804581 85.882759,159.139069 91.101517,167.193710 
	C99.840752,156.555237 108.045189,146.567764 116.819046,136.175262 
	C125.596954,125.535713 134.374847,114.896164 143.745544,103.920540 
	C152.910446,92.800453 162.075363,81.680359 171.833557,70.190300 
	C181.391388,58.773479 190.949234,47.356655 200.239960,36.258892 
	C197.841782,30.870201 194.101334,29.803129 189.102951,29.971210 
	C178.319168,30.333841 167.505722,30.340935 156.722931,29.963978 
	C151.972336,29.797903 148.760513,31.196014 146.127182,35.781231 
	C136.967468,46.848568 127.807755,57.915909 118.125938,69.338615 
	C109.342087,79.917374 100.558235,90.496140 91.235130,101.388329 
z"/>
<path fill="#07B9F3" opacity="1.000000" stroke="none" 
	d="
M171.240265,70.560272 
	C162.075363,81.680359 152.910446,92.800453 143.190826,103.844086 
	C134.640076,92.172844 126.644066,80.578049 118.648041,68.983246 
	C127.807755,57.915909 136.967468,46.848568 146.580963,35.908325 
	C155.103241,47.543705 163.171753,59.051991 171.240265,70.560272 
z"/>
<path fill="#8220BF" opacity="1.000000" stroke="none" 
	d="
M118.386993,69.160934 
	C126.644066,80.578049 134.640076,92.172844 142.894424,104.012131 
	C134.374847,114.896164 125.596954,125.535713 116.254860,136.124344 
	C107.718575,124.407249 99.746475,112.741074 91.774384,101.074898 
	C100.558235,90.496140 109.342087,79.917374 118.386993,69.160934 
z"/>
<path fill="#E849AB" opacity="1.000000" stroke="none" 
	d="
M91.504753,101.231613 
	C99.746475,112.741074 107.718575,124.407249 115.970154,136.326874 
	C108.045189,146.567764 99.840752,156.555237 91.101517,167.193710 
	C85.882759,159.139069 81.126587,151.804581 76.379982,144.463928 
	C75.838463,143.626465 75.341873,142.759399 74.839325,141.897385 
	C72.519012,137.917343 68.156540,133.770859 68.457642,129.997772 
	C68.764297,126.155067 73.614944,122.639954 76.560486,119.050766 
	C81.416245,113.133919 86.340027,107.272888 91.504753,101.231613 
z"/>
<path fill="#821FBF" opacity="1.000000" stroke="none" 
	d="
M112.147430,59.912418 
	C103.345337,70.598297 94.543243,81.284172 85.270584,91.801651 
	C77.503448,81.365448 70.206879,71.097633 62.910309,60.829834 
	C70.877747,51.131409 78.791245,41.387409 86.891289,31.801031 
	C87.755547,30.778183 89.709450,30.676044 91.674866,30.516094 
	C98.843719,40.561073 105.495575,50.236748 112.147430,59.912418 
z"/>
<path fill="#E849AC" opacity="1.000000" stroke="none" 
	d="
M62.607834,60.991051 
	C70.206879,71.097633 77.503448,81.365448 84.962242,91.952957 
	C77.376236,101.784317 69.628006,111.295967 61.534340,121.231674 
	C54.269737,109.910629 47.302769,99.053413 40.048161,87.747932 
	C47.451279,78.901772 54.878323,70.027023 62.607834,60.991051 
z"/>
<path fill="#71CC31" opacity="1.000000" stroke="none" 
	d="
M171.536911,70.375290 
	C163.171753,59.051991 155.103241,47.543705 146.847595,35.690010 
	C148.760513,31.196014 151.972336,29.797903 156.722931,29.963978 
	C167.505722,30.340935 178.319168,30.333841 189.102951,29.971210 
	C194.101334,29.803129 197.841782,30.870201 200.239960,36.258892 
	C190.949234,47.356655 181.391388,58.773479 171.536911,70.375290 
z"/>
<path fill="#E849AC" opacity="1.000000" stroke="none" 
	d="
M56.930473,51.012520 
	C49.566681,60.016090 42.202885,69.019653 34.321407,78.656189 
	C28.117279,69.004112 22.178579,59.872238 16.440042,50.616264 
	C16.019648,49.938187 16.748348,48.125160 17.450106,47.243626 
	C21.493452,42.164448 25.584791,37.113197 29.909767,32.275917 
	C30.954241,31.107725 32.887424,30.390781 34.509781,30.162870 
	C36.958984,29.818804 39.494156,30.086721 42.520363,30.496960 
	C47.675446,37.603760 52.302959,44.308140 56.930473,51.012520 
z"/>
<path fill="#E849AC" opacity="1.000000" stroke="none" 
	d="
M136.933258,166.188217 
	C129.408524,178.127472 121.883804,190.066727 113.865189,202.789612 
	C107.977493,193.669052 102.532555,185.234344 96.800873,176.355453 
	C105.212128,166.303223 113.617432,156.258102 122.431412,146.363678 
	C127.537804,153.072327 132.235535,159.630264 136.933258,166.188217 
z"/>
<path fill="#8320BF" opacity="1.000000" stroke="none" 
	d="
M137.176453,165.929611 
	C132.235535,159.630264 127.537804,153.072327 122.692459,146.174927 
	C131.350998,135.220627 140.157150,124.605797 149.447723,114.125130 
	C153.413528,119.280617 156.894913,124.301949 160.376312,129.323273 
	C152.724091,141.439178 145.071869,153.555099 137.176453,165.929611 
z"/>
<path fill="#08B9F3" opacity="1.000000" stroke="none" 
	d="
M160.624939,129.099457 
	C156.894913,124.301949 153.413528,119.280617 149.714691,113.937912 
	C158.709793,102.473434 167.922348,91.330345 177.600372,80.312607 
	C180.398514,83.749825 182.731186,87.061691 185.063873,90.373566 
	C177.000443,103.207603 168.937012,116.041626 160.624939,129.099457 
z"/>
<path fill="#0AB9F3" opacity="1.000000" stroke="none" 
	d="
M112.435593,59.770500 
	C105.495575,50.236748 98.843719,40.561073 92.046509,30.589180 
	C106.653198,30.292961 121.405258,30.292961 137.141861,30.292961 
	C128.726593,40.402966 120.725166,50.015778 112.435593,59.770500 
z"/>
<path fill="#71CC30" opacity="1.000000" stroke="none" 
	d="
M185.382568,90.210457 
	C182.731186,87.061691 180.398514,83.749825 177.873535,80.130615 
	C187.351135,68.034340 197.021027,56.245415 206.685486,44.463116 
	C212.073914,48.798687 212.109619,48.821484 208.808914,53.990814 
	C201.126480,66.022514 193.406189,78.030029 185.382568,90.210457 
z"/>
<path fill="#8422C0" opacity="1.000000" stroke="none" 
	d="
M57.210716,50.824463 
	C52.302959,44.308140 47.675446,37.603760 42.966728,30.566067 
	C53.031910,30.232756 63.178299,30.232756 74.591118,30.232756 
	C68.583336,37.401146 63.037148,44.018776 57.210716,50.824463 
z"/>
</svg>